<?xml version="1.0" encoding="UTF-8"?>
<svg width="400" height="310" version="1.1" xmlns="http://www.w3.org/2000/svg">
 <path d="m21.002 247.24v29.882c0 4.1681 0.8072 7.3145 2.4135 9.4223 1.6144 2.1084 4.1489 3.1625 7.6197 3.1625 3.4709 0 6.0217-1.0542 7.652-3.1625 1.6386-2.1079 2.4538-5.2461 2.4538-9.4223v-29.882h10.986v29.29c0 7.3545-1.792 12.974-5.3842 16.85-3.592 3.8763-8.8305 5.8142-15.716 5.8142-6.8855 0-12.116-1.9379-15.675-5.8142-3.5678-3.8758-5.3518-9.4957-5.3518-16.85v-29.29zm38.825 51.518v-51.518h9.9608l21.754 32.452v-32.452h10.84v51.518h-10.033l-21.762-32.46v32.46h-10.768zm65.198-51.518h40.585v9.4957h-14.796v42.021h-10.986v-42.021h-14.796v-9.4957zm46.405 49.571c-3.0025-1.5974-5.3194-3.8677-6.9578-6.8112-1.6389-2.944-2.454-6.325-2.454-10.153 0-3.8272 0.81515-7.2088 2.454-10.152 1.6384-2.9435 3.9553-5.2142 6.9578-6.8117 3.0025-1.5894 6.4817-2.3921 10.437-2.3921 3.9553 0 7.434 0.79468 10.437 2.3921 3.0025 1.5974 5.3194 3.8682 6.9578 6.8117 1.6384 2.9435 2.454 6.325 2.454 10.152 0 3.8277-0.82372 7.274-2.454 10.193-1.6384 2.9192-3.9553 5.1733-6.9578 6.7707-3.003 1.5974-6.4817 2.3921-10.437 2.3921-3.9553 0-7.4344-0.79468-10.437-2.3921zm17.29-9.09c1.687-2.0112 2.5264-4.6386 2.5264-7.8739s-0.83944-5.8627-2.5264-7.8739c-1.687-2.0107-3.9715-3.0163-6.8531-3.0163-2.8816 0-5.0933 1.0056-6.7726 3.0163-1.687 2.0112-2.5264 4.6386-2.5264 7.8739s0.83944 5.8627 2.5264 7.8739c1.6874 2.0112 3.9391 3.0164 6.7726 3.0164 2.833 0 5.1661-1.0051 6.8531-3.0164zm53.442-26.792v37.828h-9.1538l-0.95228-4.5657c-1.3156 1.5732-2.8573 2.7978-4.6171 3.6815-1.7598 0.88419-3.9067 1.3218-6.4493 1.3218-4.399 0-7.983-1.3622-10.768-4.0867-2.785-2.7245-4.1734-7.274-4.1734-13.656v-20.532h10.332v19.283c0 3.4382 0.59708 6.0251 1.7917 7.7687 1.1946 1.7436 3.043 2.6112 5.5294 2.6112 2.4859 0 4.5928-0.96513 6.0056-2.903 1.4203-1.9384 2.1226-4.6466 2.1226-8.1334v-18.618zm29.374 0v9.4223h-4.1005c-2.9302 0-5.0771 0.88419-6.4493 2.6516-1.3722 1.7679-2.0503 4.1681-2.0503 7.2092v18.545h-10.332v-37.828h9.3795l0.95276 5.668c1.1218-1.865 2.5102-3.2758 4.1729-4.2329s3.8824-1.4351 6.6674-1.4351zm13.335-14.094c1.1218 1.1027 1.687 2.4897 1.687 4.16s-0.55708 3.0654-1.687 4.1924c-1.1223 1.127-2.5426 1.6946-4.2457 1.6946s-3.1401-0.55946-4.2862-1.6946c-1.1466-1.127-1.7193-2.5221-1.7193-4.1924s0.57279-3.0573 1.7193-4.16c1.1461-1.1027 2.575-1.6541 4.2862-1.6541s3.1235 0.55137 4.2457 1.6541zm-9.4523 14.094h10.332v37.828h-10.332zm25.201 25.243c0.14522 1.6703 0.95228 3.0168 2.4212 4.0462 1.4694 1.0299 3.342 1.5489 5.6423 1.5489 2.3007 0 3.931-0.35663 5.1985-1.0704 1.2675-0.71373 1.905-1.727 1.905-3.0568 0-0.98133-0.29044-1.7194-0.8799-2.206-0.58946-0.48662-1.4208-0.84325-2.494-1.0704-1.0737-0.21903-2.8335-0.47852-5.2794-0.7704-3.3173-0.43757-6.0779-1.0056-8.2815-1.6946-2.1955-0.68945-3.9553-1.7679-5.2709-3.2354-1.3156-1.4679-1.9779-3.4301-1.9779-5.8875 0-2.4569 0.66993-4.6219 2.0103-6.5112 1.3399-1.8893 3.2368-3.3492 5.6742-4.3791 2.4378-1.0299 5.2471-1.5489 8.4272-1.5489 5.1256 0.0486 9.2666 1.1518 12.414 3.3087 3.1482 2.1569 4.8433 5.149 5.0938 8.9767h-9.8156c-0.14522-1.4194-0.89609-2.5869-2.236-3.4949-1.348-0.90848-3.0673-1.3627-5.1661-1.3627-1.9531 0-3.5272 0.3652-4.7219 1.1032-1.1946 0.73754-1.7917 1.7189-1.7917 2.9435 0 0.88371 0.31473 1.5489 0.95228 1.9864 0.63755 0.43805 1.4608 0.7623 2.4859 0.95704 1.0251 0.19475 2.7364 0.42139 5.1256 0.6647 5.0776 0.59231 8.9762 1.6789 11.688 3.2763 2.7121 1.5974 4.0681 4.33 4.0681 8.2063 0 2.4569-0.71849 4.6138-2.1631 6.4788-1.4451 1.865-3.4468 3.3006-6.0056 4.3062-2.5669 1.0051-5.5294 1.5079-8.9033 1.5079-5.2223 0-9.4761-1.1675-12.745-3.4949-3.2692-2.3274-5.0047-5.5061-5.1985-9.528h9.8156zm85.572-21.635c2.5426 2.7002 3.8096 7.1845 3.8096 13.469v20.824h-10.332v-21.197c0-5.7413-2.1717-8.612-6.5222-8.612-2.244 0-4.052 0.79468-5.4242 2.3921-1.3641 1.5974-2.0503 3.8196-2.0503 6.6574v20.751h-10.332v-21.197c0-5.7413-2.1955-8.6119-6.5945-8.6119-2.244 0-4.0439 0.81896-5.3842 2.465-1.3399 1.6465-2.0179 3.8601-2.0179 6.6579v20.678h-10.332v-37.902h9.0081l0.95228 4.7114c1.2675-1.6217 2.7849-2.8706 4.5448-3.7544 1.7593-0.88371 3.9553-1.346 6.5945-1.3946 5.368 0 9.1052 2.1326 11.212 6.406 1.3641-2.0598 3.164-3.641 5.3837-4.7438 2.2198-1.1027 4.7462-1.6541 7.5797-1.6541 4.052 0 7.3454 1.3542 9.888 4.0462m-265.73-186.78c9.041-4.6466 19.05-8.3524 32.724-11.799 5.0204-1.2646 15.449-2.2621 22.706-2.4893 5.7794-0.17855 7.8216 0.85134 9.4523 2.4164 3.0187 2.9111 3.8096 7.9306 3.8096 19.048v63.308c0 4.0786-1.4203 8.5305-11.688 11.466-14.078 4.0224-32.82 5.6037-39.326 5.8546-6.506 0.2514-15.353-1.9865-18.969-7.752-10.445-16.623-15.159-33.66-15.159-52.894 0-11.345 8.2091-23.143 16.442-27.157m137.54 92.881c0.19378 2.1812 1.3884 3.6244 3.3825 4.2976 2.066 0.70564 4.8833 0.35662 6.0698-0.81896 17.54-17.459 28.308-41.567 28.308-68.198 0-10.023-1.6222-18.975-3.9634-27.23-0.58899-2.0679-2.8007-5.7899-5.0933-7.055-2.244-1.2408-4.819-1.3946-8.7419-0.12189-15.215 4.9466-28.849 9.4633-36.501 9.4633-6.086 0-20.228-6.0003-26.177-8.6524-2.2198-0.98894-3.8015-0.87562-5.279 0.0086-1.348 0.81087-2.3569 2.4002-2.3569 4.8571v21.1c0 5.6437 3.1563 11.798 7.4825 13.737 22.811 10.209 35.291 16.875 38.301 27.124 1.3237 4.509 3.6325 21.1 4.5605 31.496m-57.965 31.455c11.147 0 23.877-2.3274 31.795-5.4737 9.0567-3.6087 14.892-8.6929 14.457-19.632-0.76706-10.85-3.0997-28.674-4.1734-32.201-1.3722-4.5328-8.0958-9.1309-26.354-14.783-2.7849-0.85943-5.029-0.30806-7.0388 1.038-1.1784 0.79468-2.6235 2.9192-2.7202 5.3275-0.61375 15.075-3.9958 28.081-15.272 32.241-2.8816 1.0704-5.9327 2.0193-9.1052 2.8788-0.0157 0-0.0319 8e-3 -0.0319 8e-3 -8.6129 2.3274-18.428 4.3624-27.784 5.0033-8.9595 0.61613-8.9919 7.9953-4.8185 10.72 14.263 9.3252 32.279 14.872 51.037 14.872m-76.754-138.37c5.1823-2.295 16.709-6.6088 26.524-9.4876 6.3041-1.8489 22.165-2.8383 34.451-3.3411 9.2747-0.43757 9.7266-4.0139 9.7266-11.239v-18.213c0-2.9192-0.48423-6.8117-2.8006-8.7415-2.115-1.7679-5.0695-2.2058-7.7006-1.7274-27.735 5.0276-51.823 21.156-66.788 47.016-0.78325 1.346-0.72659 3.7058 0.33092 4.9304 1.2832 1.4922 3.9067 1.8489 6.2555 0.81896m154.32-14.199c-12.722-17.921-31.989-31.641-54.67-37.131-8.2091-1.9868-8.411 7.6873-8.411 14.62 0 6.4793-0.0567 10.647-2.6397 12.48-2.8007 1.995-5.5451 0.868-5.7146 7.8092 0 0.22712-8e-3 0.45424-8e-3 0.70564 0 3.722 1.227 6.3898 7.8296 9.9332 3.3658 1.8084 9.6861 4.9628 14.408 6.9412 6.0056 2.5221 10.946 3.8844 13.092 3.8844 6.2798 0 17.799-2.5216 29.729-6.2032 4.9076-1.6055 7.3454-3.5196 8.0153-5.6361 0.49233-1.5489 0.15331-4.8814-1.6384-7.3954" fill="#0022f5" stroke-width="4.7614"/>
</svg>
